<svg width="26" height="26" viewBox="0 0 26 26" fill="none" xmlns="http://www.w3.org/2000/svg">
<path d="M13 1L15.3411 1.23058L17.5922 1.91345L19.6668 3.02236L21.4853 4.51472L22.9776 6.33316L24.0866 8.4078L24.7694 10.6589L25 13L24.7694 15.3411L24.0866 17.5922L22.9776 19.6668L21.4853 21.4853L19.6668 22.9776L17.5922 24.0866L15.3411 24.7694L13 25L10.6589 24.7694L8.4078 24.0866L6.33316 22.9776L4.51472 21.4853L3.02236 19.6668L1.91345 17.5922L1.23058 15.3411L1 13L1.23058 10.6589L1.91345 8.4078L3.02236 6.33316L4.51472 4.51472L6.33316 3.02236L8.4078 1.91345L10.6589 1.23058L13 1Z" fill="#0F67CF"/>
<path d="M10.7863 12.05L12.6153 8C12.9791 8 13.328 8.14223 13.5853 8.3954C13.8425 8.64858 13.9871 8.99195 13.9871 9.34999V11.15H16.5751C16.7077 11.1485 16.839 11.1754 16.9599 11.2288C17.0809 11.2822 17.1886 11.3609 17.2756 11.4594C17.3626 11.5578 17.4268 11.6737 17.4637 11.799C17.5007 11.9243 17.5095 12.056 17.4896 12.185L16.8586 16.2349C16.8256 16.4496 16.7148 16.6452 16.5467 16.7857C16.3787 16.9263 16.1647 17.0024 15.9441 16.9999H10.7863M10.7863 12.05V16.9999M10.7863 12.05H9.41451C9.17197 12.05 8.93936 12.1448 8.76785 12.3136C8.59635 12.4824 8.5 12.7113 8.5 12.95V16.0999C8.5 16.3386 8.59635 16.5676 8.76785 16.7363C8.93936 16.9051 9.17197 16.9999 9.41451 16.9999H10.7863" stroke="white" stroke-width="1.2" stroke-linecap="round" stroke-linejoin="round"/>
</svg>
